# Blender 5.1.1
# www.blender.org
mtllib boneclawmaginverted.mtl
o 89041732282055
v -0.008830 -0.312205 0.105636
v -0.008830 -0.312205 -0.105636
v 0.025218 -0.306918 0.105636
v 0.025218 -0.306918 -0.105636
v -0.060473 0.245140 0.105636
v -0.060473 0.245140 -0.105636
v -0.094521 0.239855 0.105636
v -0.094521 0.239855 -0.105636
v -0.133986 -0.331629 0.105636
v -0.133986 -0.331630 -0.105636
v -0.099938 -0.326346 0.105636
v -0.099938 -0.326346 -0.105636
v -0.185629 0.225713 0.105636
v -0.185629 0.225713 -0.105636
v -0.219676 0.220428 0.105636
v -0.219676 0.220428 -0.105636
v 0.116325 -0.292777 0.105636
v 0.116325 -0.292778 -0.105636
v 0.150373 -0.287492 0.105636
v 0.150373 -0.287492 -0.105636
v 0.064683 0.264567 0.105636
v 0.064683 0.264567 -0.105636
v 0.030634 0.259281 0.105636
v 0.030634 0.259281 -0.105636
v -0.219676 0.220428 0.105636
v -0.219676 0.220428 -0.105636
v -0.237280 0.113282 0.105636
v -0.237280 0.113282 -0.105636
v -0.242098 -0.006309 0.105636
v -0.242098 -0.006309 -0.105636
v -0.224084 -0.122358 0.105636
v -0.224084 -0.122358 -0.105636
v -0.183241 -0.234861 0.105636
v -0.183241 -0.234861 -0.105636
v -0.133986 -0.331629 0.105636
v -0.133986 -0.331630 -0.105636
v 0.047079 0.157420 0.105636
v 0.047079 0.157420 -0.105636
v 0.064683 0.264567 0.105636
v 0.064683 0.264567 -0.105636
v 0.042261 0.037828 -0.105636
v 0.042261 0.037829 0.105636
v 0.060275 -0.078219 -0.105636
v 0.060275 -0.078219 0.105636
v 0.101118 -0.190722 -0.105636
v 0.101118 -0.190722 0.105636
v 0.150373 -0.287492 -0.105636
v 0.150373 -0.287492 0.105636
v -0.078075 0.137994 -0.105636
v -0.094521 0.239855 -0.105636
v -0.060473 0.245140 -0.105636
v -0.112125 0.132708 -0.105636
v -0.082893 0.018402 -0.105636
v -0.116940 0.013117 -0.105636
v -0.064881 -0.097646 -0.105636
v -0.098928 -0.102930 -0.105636
v -0.058085 -0.215434 -0.105636
v -0.024036 -0.210151 -0.105636
v -0.008830 -0.312205 -0.105636
v 0.025218 -0.306918 -0.105636
v -0.094521 0.239855 0.105636
v -0.078075 0.137994 0.105636
v -0.060473 0.245140 0.105636
v -0.112125 0.132708 0.105636
v -0.082893 0.018403 0.105636
v -0.116940 0.013117 0.105636
v -0.064881 -0.097646 0.105636
v -0.098928 -0.102930 0.105636
v -0.058085 -0.215434 0.105636
v -0.024036 -0.210151 0.105636
v -0.008830 -0.312205 0.105636
v 0.025218 -0.306918 0.105636
v -0.203233 0.118566 -0.105636
v -0.219676 0.220428 -0.105636
v -0.185629 0.225713 -0.105636
v -0.237280 0.113282 -0.105636
v -0.208048 -0.001025 -0.105636
v -0.242098 -0.006309 -0.105636
v -0.190036 -0.117072 -0.105636
v -0.224084 -0.122358 -0.105636
v -0.183241 -0.234861 -0.105636
v -0.149193 -0.229577 -0.105636
v -0.133986 -0.331630 -0.105636
v -0.099938 -0.326346 -0.105636
v -0.219676 0.220428 0.105636
v -0.203233 0.118566 0.105636
v -0.185629 0.225713 0.105636
v -0.237280 0.113282 0.105636
v -0.208048 -0.001025 0.105636
v -0.242098 -0.006309 0.105636
v -0.190036 -0.117072 0.105636
v -0.224084 -0.122358 0.105636
v -0.183241 -0.234861 0.105636
v -0.149193 -0.229577 0.105636
v -0.133986 -0.331629 0.105636
v -0.099938 -0.326346 0.105636
v 0.047079 0.157420 -0.105636
v 0.030634 0.259281 -0.105636
v 0.064683 0.264567 -0.105636
v 0.013031 0.152135 -0.105636
v 0.042261 0.037828 -0.105636
v 0.008214 0.032544 -0.105636
v 0.060275 -0.078219 -0.105636
v 0.026227 -0.083505 -0.105636
v 0.067070 -0.196008 -0.105636
v 0.101118 -0.190722 -0.105636
v 0.116325 -0.292778 -0.105636
v 0.150373 -0.287492 -0.105636
v 0.030634 0.259281 0.105636
v 0.047079 0.157420 0.105636
v 0.064683 0.264567 0.105636
v 0.013031 0.152135 0.105636
v 0.042261 0.037829 0.105636
v 0.008214 0.032544 0.105636
v 0.060275 -0.078219 0.105636
v 0.026227 -0.083505 0.105636
v 0.067070 -0.196008 0.105636
v 0.101118 -0.190722 0.105636
v 0.116325 -0.292777 0.105636
v 0.150373 -0.287492 0.105636
v -0.094521 0.239855 -0.105636
v -0.112125 0.132708 0.105636
v -0.094521 0.239855 0.105636
v -0.112125 0.132708 -0.105636
v -0.116940 0.013117 0.105636
v -0.116940 0.013117 -0.105636
v -0.098928 -0.102930 0.105636
v -0.098928 -0.102930 -0.105636
v -0.058085 -0.215434 0.105636
v -0.058085 -0.215434 -0.105636
v -0.008830 -0.312205 0.105636
v -0.008830 -0.312205 -0.105636
v -0.078075 0.137994 0.105636
v -0.078075 0.137994 -0.105636
v -0.060473 0.245140 0.105636
v -0.060473 0.245140 -0.105636
v -0.082893 0.018402 -0.105636
v -0.082893 0.018403 0.105636
v -0.064881 -0.097646 -0.105636
v -0.064881 -0.097646 0.105636
v -0.024036 -0.210151 -0.105636
v -0.024036 -0.210151 0.105636
v 0.025218 -0.306918 -0.105636
v 0.025218 -0.306918 0.105636
v 0.030634 0.259281 0.105636
v 0.030634 0.259281 -0.105636
v 0.013031 0.152135 0.105636
v 0.013031 0.152135 -0.105636
v 0.008214 0.032544 0.105636
v 0.008214 0.032544 -0.105636
v 0.026227 -0.083505 0.105636
v 0.026227 -0.083505 -0.105636
v 0.067070 -0.196008 0.105636
v 0.067070 -0.196008 -0.105636
v 0.116325 -0.292777 0.105636
v 0.116325 -0.292778 -0.105636
v -0.203233 0.118566 0.105636
v -0.203233 0.118566 -0.105636
v -0.185629 0.225713 0.105636
v -0.185629 0.225713 -0.105636
v -0.208048 -0.001025 -0.105636
v -0.208048 -0.001025 0.105636
v -0.190036 -0.117072 -0.105636
v -0.190036 -0.117072 0.105636
v -0.149193 -0.229577 -0.105636
v -0.149193 -0.229577 0.105636
v -0.099938 -0.326346 -0.105636
v -0.099938 -0.326346 0.105636
vn 0.1534 -0.9882 -0.0000
vn 0.1532 -0.9882 -0.0004
vn 0.1533 -0.9882 -0.0003
vn -0.1534 0.9882 -0.0000
vn -0.1536 0.9881 -0.0004
vn -0.1535 0.9881 -0.0003
vn 0.1533 -0.9882 -0.0000
vn 0.1532 -0.9882 -0.0005
vn -0.1536 0.9881 -0.0003
vn -0.1535 0.9881 -0.0005
vn -0.9868 0.1620 -0.0003
vn -0.9868 0.1619 -0.0004
vn -0.9948 0.1014 -0.0000
vn -0.9984 -0.0569 -0.0003
vn -0.9984 -0.0570 -0.0005
vn -0.9682 -0.2501 -0.0005
vn -0.9682 -0.2504 -0.0005
vn -0.9165 -0.3999 -0.0005
vn -0.9166 -0.3999 -0.0005
vn -0.8912 -0.4537 -0.0003
vn -0.8912 -0.4536 -0.0000
vn 0.9948 -0.1019 -0.0004
vn 0.9868 -0.1621 -0.0000
vn 0.9984 0.0568 -0.0000
vn 0.9681 0.2507 -0.0005
vn 0.9168 0.3994 -0.0005
vn 0.8912 0.4536 -0.0000
vn -0.0000 -0.0000 -1.0000
vn -0.0000 -0.0000 1.0000
vn -0.9868 0.1621 -0.0000
vn -0.9949 0.1012 -0.0006
vn -0.9984 -0.0568 -0.0000
vn -0.9681 -0.2505 -0.0005
vn -0.9166 -0.3998 -0.0005
vn -0.8912 -0.4537 -0.0008
vn 0.9948 -0.1014 -0.0000
vn 0.9867 -0.1626 -0.0005
vn 0.9867 -0.1625 -0.0004
vn -0.9949 0.1012 -0.0005
vn -0.9682 -0.2502 -0.0005
vn 0.9948 -0.1020 -0.0004
vt 0.000000 0.000000
s 1
f 1/1/1 2/1/2 3/1/2
f 3/1/2 2/1/2 4/1/3
f 5/1/4 6/1/5 7/1/6
f 7/1/6 6/1/5 8/1/4
f 9/1/7 10/1/3 11/1/7
f 11/1/7 10/1/3 12/1/8
f 13/1/9 14/1/10 15/1/5
f 15/1/5 14/1/10 16/1/6
f 17/1/1 18/1/2 19/1/1
f 19/1/1 18/1/2 20/1/1
f 21/1/4 22/1/4 23/1/4
f 23/1/4 22/1/4 24/1/6
f 25/1/11 26/1/12 27/1/13
f 27/1/13 26/1/12 28/1/13
f 27/1/13 28/1/13 29/1/14
f 29/1/14 28/1/13 30/1/15
f 30/1/15 31/1/16 29/1/14
f 31/1/16 30/1/15 32/1/17
f 31/1/16 32/1/17 33/1/18
f 33/1/18 32/1/17 34/1/19
f 33/1/18 34/1/19 35/1/20
f 35/1/20 34/1/19 36/1/21
f 37/1/22 38/1/22 39/1/23
f 39/1/23 38/1/22 40/1/23
f 37/1/22 41/1/24 38/1/22
f 42/1/24 41/1/24 37/1/22
f 42/1/24 43/1/25 41/1/24
f 44/1/25 43/1/25 42/1/24
f 44/1/25 45/1/26 43/1/25
f 46/1/26 45/1/26 44/1/25
f 46/1/26 47/1/27 45/1/26
f 48/1/27 47/1/27 46/1/26
f 49/1/28 50/1/28 51/1/28
f 50/1/28 49/1/28 52/1/28
f 53/1/28 52/1/28 49/1/28
f 52/1/28 53/1/28 54/1/28
f 55/1/28 54/1/28 53/1/28
f 54/1/28 55/1/28 56/1/28
f 57/1/28 56/1/28 55/1/28
f 55/1/28 58/1/28 57/1/28
f 59/1/28 57/1/28 58/1/28
f 58/1/28 60/1/28 59/1/28
f 61/1/29 62/1/29 63/1/29
f 62/1/29 61/1/29 64/1/29
f 64/1/29 65/1/29 62/1/29
f 65/1/29 64/1/29 66/1/29
f 66/1/29 67/1/29 65/1/29
f 67/1/29 66/1/29 68/1/29
f 69/1/29 67/1/29 68/1/29
f 67/1/29 69/1/29 70/1/29
f 71/1/29 70/1/29 69/1/29
f 70/1/29 71/1/29 72/1/29
f 73/1/28 74/1/28 75/1/28
f 74/1/28 73/1/28 76/1/28
f 77/1/28 76/1/28 73/1/28
f 76/1/28 77/1/28 78/1/28
f 79/1/28 78/1/28 77/1/28
f 78/1/28 79/1/28 80/1/28
f 81/1/28 80/1/28 79/1/28
f 79/1/28 82/1/28 81/1/28
f 83/1/28 81/1/28 82/1/28
f 82/1/28 84/1/28 83/1/28
f 85/1/29 86/1/29 87/1/29
f 86/1/29 85/1/29 88/1/29
f 88/1/29 89/1/29 86/1/29
f 89/1/29 88/1/29 90/1/29
f 90/1/29 91/1/29 89/1/29
f 91/1/29 90/1/29 92/1/29
f 93/1/29 91/1/29 92/1/29
f 91/1/29 93/1/29 94/1/29
f 95/1/29 94/1/29 93/1/29
f 94/1/29 95/1/29 96/1/29
f 97/1/28 98/1/28 99/1/28
f 98/1/28 97/1/28 100/1/28
f 101/1/28 100/1/28 97/1/28
f 100/1/28 101/1/28 102/1/28
f 103/1/28 102/1/28 101/1/28
f 102/1/28 103/1/28 104/1/28
f 105/1/28 104/1/28 103/1/28
f 103/1/28 106/1/28 105/1/28
f 107/1/28 105/1/28 106/1/28
f 106/1/28 108/1/28 107/1/28
f 109/1/29 110/1/29 111/1/29
f 110/1/29 109/1/29 112/1/29
f 112/1/29 113/1/29 110/1/29
f 113/1/29 112/1/29 114/1/29
f 114/1/29 115/1/29 113/1/29
f 115/1/29 114/1/29 116/1/29
f 117/1/29 115/1/29 116/1/29
f 115/1/29 117/1/29 118/1/29
f 119/1/29 118/1/29 117/1/29
f 118/1/29 119/1/29 120/1/29
f 121/1/30 122/1/31 123/1/30
f 122/1/31 121/1/30 124/1/31
f 122/1/31 124/1/31 125/1/15
f 125/1/15 124/1/31 126/1/32
f 125/1/15 126/1/32 127/1/33
f 127/1/33 126/1/32 128/1/33
f 127/1/33 128/1/33 129/1/34
f 129/1/34 128/1/33 130/1/19
f 129/1/34 130/1/19 131/1/21
f 131/1/21 130/1/19 132/1/35
f 133/1/22 134/1/36 135/1/37
f 135/1/37 134/1/36 136/1/38
f 133/1/22 137/1/24 134/1/36
f 138/1/24 137/1/24 133/1/22
f 138/1/24 139/1/25 137/1/24
f 140/1/25 139/1/25 138/1/24
f 140/1/25 141/1/26 139/1/25
f 142/1/26 141/1/26 140/1/25
f 142/1/26 143/1/27 141/1/26
f 144/1/27 143/1/27 142/1/26
f 145/1/30 146/1/30 147/1/39
f 147/1/39 146/1/30 148/1/31
f 147/1/39 148/1/31 149/1/32
f 149/1/32 148/1/31 150/1/32
f 149/1/32 150/1/32 151/1/40
f 151/1/40 150/1/32 152/1/33
f 151/1/40 152/1/33 153/1/19
f 153/1/19 152/1/33 154/1/19
f 153/1/19 154/1/19 155/1/21
f 155/1/21 154/1/19 156/1/21
f 157/1/22 158/1/41 159/1/23
f 159/1/23 158/1/41 160/1/38
f 157/1/22 161/1/24 158/1/41
f 162/1/24 161/1/24 157/1/22
f 162/1/24 163/1/25 161/1/24
f 164/1/25 163/1/25 162/1/24
f 164/1/25 165/1/26 163/1/25
f 166/1/26 165/1/26 164/1/25
f 166/1/26 167/1/27 165/1/26
f 168/1/27 167/1/27 166/1/26
o 93460943785005
v -0.273806 0.246016 0.098993
v 0.108914 0.305423 0.098991
v 0.108914 0.305423 -0.098991
v -0.273806 0.246016 -0.098990
v 0.267547 -0.414135 0.118788
v -0.191719 -0.485423 0.118788
v -0.191719 -0.485423 -0.118788
v 0.267547 -0.414135 -0.118788
v 0.267547 -0.414135 0.118788
v 0.256727 -0.344609 -0.118788
v 0.256727 -0.344609 0.118788
v 0.267547 -0.414135 -0.118788
v -0.273806 0.246016 0.098993
v -0.273806 0.246016 -0.098990
v -0.292872 0.119854 0.098993
v -0.292872 0.119854 -0.098990
v -0.298425 -0.004208 0.098993
v -0.298425 -0.004208 -0.098990
v -0.279751 -0.124512 0.098993
v -0.279751 -0.124512 -0.098990
v -0.236851 -0.241056 0.098993
v -0.236851 -0.241056 -0.098991
v -0.180439 -0.355500 0.098991
v -0.180439 -0.355500 -0.098991
v -0.202540 -0.415897 -0.118788
v -0.202540 -0.415897 0.118788
v -0.191719 -0.485423 -0.118788
v -0.191719 -0.485423 0.118788
v -0.202540 -0.415897 0.118788
v -0.202540 -0.415897 -0.118788
v 0.108914 0.305423 0.098991
v 0.089850 0.179261 0.098991
v 0.089850 0.179261 -0.098991
v 0.108914 0.305423 -0.098991
v 0.084298 0.055198 -0.098991
v 0.084298 0.055198 0.098991
v 0.102971 -0.065106 -0.098991
v 0.102971 -0.065106 0.098991
v 0.145870 -0.181649 -0.098991
v 0.145870 -0.181649 0.098991
v 0.202282 -0.296096 -0.098991
v 0.202282 -0.296096 0.098991
v 0.256727 -0.344609 0.118788
v 0.256727 -0.344609 -0.118788
v -0.191719 -0.485423 0.118788
v 0.256727 -0.344609 0.118788
v -0.202540 -0.415897 0.118788
v 0.267547 -0.414135 0.118788
v -0.191719 -0.485423 -0.118788
v 0.256727 -0.344609 -0.118788
v 0.267547 -0.414135 -0.118788
v -0.202540 -0.415897 -0.118788
v -0.273806 0.246016 -0.098990
v 0.089850 0.179261 -0.098991
v -0.292872 0.119854 -0.098990
v 0.108914 0.305423 -0.098991
v 0.084298 0.055198 -0.098991
v -0.298425 -0.004208 -0.098990
v -0.279751 -0.124512 -0.098990
v 0.102971 -0.065106 -0.098991
v -0.236851 -0.241056 -0.098991
v 0.145870 -0.181649 -0.098991
v -0.180439 -0.355500 -0.098991
v 0.202282 -0.296096 -0.098991
v -0.202540 -0.415897 -0.118788
v 0.256727 -0.344609 -0.118788
v -0.273806 0.246016 0.098993
v 0.089850 0.179261 0.098991
v 0.108914 0.305423 0.098991
v -0.292872 0.119854 0.098993
v 0.084298 0.055198 0.098991
v -0.298425 -0.004208 0.098993
v -0.279751 -0.124512 0.098993
v 0.102971 -0.065106 0.098991
v -0.236851 -0.241056 0.098993
v 0.145870 -0.181649 0.098991
v -0.180439 -0.355500 0.098991
v 0.202282 -0.296096 0.098991
v -0.202540 -0.415897 0.118788
v 0.256727 -0.344609 0.118788
vn -0.1534 0.9882 -0.0000
vn 0.1534 -0.9882 -0.0000
vn 0.9881 0.1538 -0.0000
vn 0.9881 0.1540 -0.0004
vn -0.9888 0.1492 -0.0003
vn -0.9953 0.0972 -0.0000
vn -0.9985 -0.0551 -0.0005
vn -0.9676 -0.2525 -0.0005
vn -0.9190 -0.3943 -0.0000
vn -0.9187 -0.3949 -0.0003
vn -0.9997 -0.0228 -0.0005
vn -0.9997 -0.0229 -0.0005
vn -0.9391 0.3436 -0.0007
vn -0.9391 0.3436 -0.0000
vn -0.9881 -0.1538 -0.0003
vn -0.9881 -0.1538 -0.0000
vn 0.9887 -0.1500 -0.0007
vn 0.9953 -0.0971 -0.0003
vn 0.9953 -0.0971 -0.0006
vn 0.9887 -0.1499 -0.0005
vn 0.9985 0.0553 -0.0005
vn 0.9985 0.0546 -0.0000
vn 0.9676 0.2525 -0.0005
vn 0.9186 0.3951 -0.0005
vn 0.9187 0.3950 -0.0004
vn 0.7684 0.6400 -0.0005
vn 0.6653 0.7466 -0.0000
vn 0.6651 0.7468 -0.0004
vn -0.0000 -0.0000 1.0000
vn -0.0000 -0.0000 -1.0000
vn -0.0323 0.2057 -0.9781
vn -0.0225 0.1462 -0.9890
vn -0.0509 0.3278 -0.9434
vn -0.0509 0.3279 -0.9434
vn -0.0323 0.2057 0.9781
vn -0.0225 0.1462 0.9890
vn -0.0509 0.3278 0.9434
vn -0.0509 0.3279 0.9434
vt 0.000000 0.000000
s 1
f 169/2/42 170/2/42 171/2/42
f 169/2/42 171/2/42 172/2/42
f 173/2/43 174/2/43 175/2/43
f 173/2/43 175/2/43 176/2/43
f 177/2/44 178/2/44 179/2/44
f 178/2/44 177/2/44 180/2/45
f 181/2/46 182/2/46 183/2/47
f 183/2/47 182/2/46 184/2/47
f 184/2/47 185/2/48 183/2/47
f 185/2/48 184/2/47 186/2/48
f 185/2/48 186/2/48 187/2/49
f 187/2/49 186/2/48 188/2/49
f 188/2/49 189/2/50 187/2/49
f 189/2/50 188/2/49 190/2/51
f 190/2/51 191/2/52 189/2/50
f 191/2/52 190/2/51 192/2/53
f 193/2/54 191/2/52 192/2/53
f 193/2/54 194/2/55 191/2/52
f 195/2/56 196/2/57 197/2/56
f 197/2/56 198/2/57 195/2/56
f 199/2/58 200/2/59 201/2/60
f 199/2/58 201/2/60 202/2/61
f 200/2/59 203/2/62 201/2/60
f 200/2/59 204/2/63 203/2/62
f 204/2/63 205/2/64 203/2/62
f 204/2/63 206/2/64 205/2/64
f 206/2/64 207/2/65 205/2/64
f 206/2/64 208/2/66 207/2/65
f 208/2/66 209/2/67 207/2/65
f 208/2/66 210/2/67 209/2/67
f 211/2/68 209/2/67 210/2/67
f 211/2/68 212/2/69 209/2/67
f 213/2/70 214/2/70 215/2/70
f 214/2/70 213/2/70 216/2/70
f 217/2/71 218/2/71 219/2/71
f 218/2/71 217/2/71 220/2/71
f 221/2/71 222/2/71 223/2/71
f 222/2/71 221/2/71 224/2/71
f 225/2/71 223/2/71 222/2/71
f 223/2/71 225/2/71 226/2/71
f 226/2/71 225/2/71 227/2/71
f 228/2/71 227/2/71 225/2/71
f 227/2/71 228/2/71 229/2/71
f 230/2/71 229/2/71 228/2/71
f 229/2/71 230/2/71 231/2/72
f 232/2/73 231/2/72 230/2/71
f 232/2/73 233/2/74 231/2/72
f 233/2/74 232/2/73 234/2/75
f 235/2/70 236/2/70 237/2/70
f 236/2/70 235/2/70 238/2/70
f 238/2/70 239/2/70 236/2/70
f 239/2/70 238/2/70 240/2/70
f 241/2/70 239/2/70 240/2/70
f 239/2/70 241/2/70 242/2/70
f 243/2/70 242/2/70 241/2/70
f 242/2/70 243/2/70 244/2/70
f 245/2/76 244/2/70 243/2/70
f 244/2/70 245/2/76 246/2/77
f 247/2/78 246/2/77 245/2/76
f 246/2/77 247/2/78 248/2/79
